<?xml version="1.0" encoding="UTF-8" standalone="no"?>
<!-- Created with Inkscape (http://www.inkscape.org/) -->

<svg
   width="512"
   height="512"
   viewBox="0 0 135.46667 135.46667"
   version="1.1"
   id="svg1"
   inkscape:version="1.4.2 (f4327f4, 2025-05-13)"
   sodipodi:docname="seta_launcher.svg"
   inkscape:export-filename="seta_splash_logo.png"
   inkscape:export-xdpi="96"
   inkscape:export-ydpi="96"
   xml:space="preserve"
   xmlns:inkscape="http://www.inkscape.org/namespaces/inkscape"
   xmlns:sodipodi="http://sodipodi.sourceforge.net/DTD/sodipodi-0.dtd"
   xmlns:xlink="http://www.w3.org/1999/xlink"
   xmlns="http://www.w3.org/2000/svg"
   xmlns:svg="http://www.w3.org/2000/svg"><sodipodi:namedview
     id="namedview1"
     pagecolor="#ffffff"
     bordercolor="#cccccc"
     borderopacity="1"
     inkscape:showpageshadow="0"
     inkscape:pageopacity="1"
     inkscape:pagecheckerboard="0"
     inkscape:deskcolor="#d1d1d1"
     inkscape:document-units="px"
     inkscape:zoom="1.044421"
     inkscape:cx="360.96556"
     inkscape:cy="302.08125"
     inkscape:window-width="1920"
     inkscape:window-height="1009"
     inkscape:window-x="-8"
     inkscape:window-y="-8"
     inkscape:window-maximized="1"
     inkscape:current-layer="layer1" /><defs
     id="defs1"><linearGradient
       id="linearGradient11"
       inkscape:collect="always"><stop
         style="stop-color:#ff2a2a;stop-opacity:1;"
         offset="0"
         id="stop11" /><stop
         style="stop-color:#ff4e48;stop-opacity:1;"
         offset="0.91205525"
         id="stop13" /><stop
         style="stop-color:#ff7264;stop-opacity:1;"
         offset="1"
         id="stop12" /></linearGradient><radialGradient
       inkscape:collect="always"
       xlink:href="#linearGradient11"
       id="radialGradient12"
       cx="66.806381"
       cy="66.174728"
       fx="66.806381"
       fy="66.174728"
       r="52.753819"
       gradientTransform="matrix(0.10098847,-0.94368695,0.93097585,0.14125381,-0.03101584,121.44057)"
       gradientUnits="userSpaceOnUse" /></defs><g
     inkscape:label="Layer 1"
     inkscape:groupmode="layer"
     id="layer1"><g
       id="g1"
       transform="matrix(0.97155709,0.23680546,-0.26842677,0.96384977,20.079172,-13.92285)"><path
         style="baseline-shift:baseline;display:inline;overflow:visible;vector-effect:none;fill:#ff0000;stroke-width:0.954794;enable-background:accumulate;stop-color:#000000"
         d="m 14.472403,67.120513 c -0.107084,1.083171 0.04917,2.155206 0.346174,3.157995 l 0.0018,0.0021 -1.97e-4,0.0018 c 0.35942,1.204291 0.959239,2.377273 1.826047,3.400766 0.45115,0.533829 1.529429,1.480284 3.013824,2.189631 0.952824,5.960766 1.579361,10.26084 5.669744,16.633784 1.307365,2.036918 3.053007,4.317047 4.992862,6.60561 -0.227881,0.840671 -0.356782,1.816211 -0.09332,2.972781 0.204007,0.89103 0.588842,1.76054 1.154737,2.5385 l 0.002,2.9e-4 c 1.693852,2.31995 4.503737,2.87891 6.750997,2.38283 2.829189,2.41675 5.83949,4.58051 8.934621,6.10044 4.356586,2.13942 8.942566,3.2837 13.513685,3.89581 0.286287,0.62031 0.538795,1.26051 1.018724,1.78115 0.665107,0.7267 1.446478,1.28729 2.230447,1.74071 l 0.0018,0.002 c 0.457189,0.26284 0.933606,0.50171 1.427718,0.71072 l 0.0094,0.003 0.0092,0.005 c 2.377059,0.967 4.559639,0.88433 6.268887,0.20534 1.709248,-0.67899 2.953887,-1.87675 3.856239,-3.03827 l 0.0964,-0.12213 0.05821,-0.14617 c 0.09412,-0.23274 0.132741,-0.49481 0.205187,-0.74022 7.319514,-0.42683 14.697759,-1.72068 20.897821,-4.94395 1.376691,1.29212 3.09131,2.23235 4.96131,2.228 0.9302,0.002 1.79032,-0.1835 2.57019,-0.43792 l 0.002,-0.002 0.002,2.9e-4 c 0.45381,-0.14943 0.89975,-0.32692 1.33262,-0.53633 l 0.008,-0.004 0.008,-0.004 c 2.05397,-1.03261 3.20131,-2.60682 3.61945,-4.2303 0.41814,-1.6235 0.17707,-3.24928 -0.22153,-4.6125 l -0.0455,-0.15461 -0.0838,-0.14037 c -0.31454,-0.52596 -0.69285,-1.03826 -1.1488,-1.50729 l -0.005,-0.006 -0.005,-0.006 c -0.0444,-0.0446 -0.0879,-0.0773 -0.13247,-0.12039 2.40516,-3.31609 4.37669,-7.010177 6.18091,-11.051902 1.4597,-3.269913 2.76489,-7.252678 3.77889,-11.334292 0.90116,0.161612 1.82984,0.198639 2.74541,-0.10133 1.41007,-0.461976 2.65505,-1.57831 3.37924,-3.307576 l 0.005,-0.0084 0.003,-0.0087 c 1.40786,-3.520869 -1.1589,-6.862928 -4.39796,-7.691524 0.0997,-1.903658 0.14799,-3.77633 -0.0623,-5.4308 -0.97782,-7.694892 -2.32782,-12.298729 -4.84681,-18.130041 -2.5072,-5.804035 -4.84186,-10.250516 -10.89107,-15.907002 -2.03848,-1.906138 -4.753631,-3.586486 -7.756832,-5.09933 0.32268,-1.581786 0.31809,-3.32168 -0.528073,-5.080242 l -0.0018,-0.0021 C 94.719531,18.909194 94.13971,18.095384 93.395668,17.404948 l -0.03869,-0.03687 -0.04288,-0.03386 C 93.11179,17.173774 92.945664,17.063196 92.834476,16.980625 l -0.0072,-0.0048 -1.142243,-0.826133 -0.15578,-0.06556 c -1.914569,-0.786314 -5.000311,-1.318149 -7.489026,0.131067 -0.835031,0.482453 -1.528838,1.112935 -2.093023,1.810495 l -0.0022,0.0015 -1.96e-4,0.0018 c -0.320187,0.398804 -0.553282,1.007878 -0.819156,1.551534 -2.169943,-0.543109 -4.330955,-1.032035 -6.35408,-1.347018 -3.900172,-0.607232 -8.023274,-0.884192 -12.057553,-0.822841 -0.06255,-0.156615 -0.09174,-0.314348 -0.166737,-0.470237 l -0.0018,-0.0021 C 62.18095,16.179463 61.67321,15.462905 61.016634,14.853644 l -0.0406,-0.03716 -0.04098,-0.03357 C 60.753482,14.638722 60.608461,14.544192 60.518133,14.47712 l -0.007,-0.0067 -0.99832,-0.722238 -0.155965,-0.06381 c -1.688804,-0.693579 -4.368041,-1.163989 -6.576985,0.11993 -0.737205,0.425339 -1.346537,0.980381 -1.840912,1.59162 l -1.97e-4,0.0018 -0.0021,0.0015 c -0.711188,0.885793 -1.249232,2.285323 -1.329163,3.926797 -1.192898,0.385636 -2.368128,0.794222 -3.429668,1.315925 -6.356446,3.123944 -11.341378,6.05821 -15.571748,10.482298 -1.313919,-0.743893 -2.888767,-1.172752 -4.687757,-0.727671 l -0.002,-2.96e-4 c -4.51084,1.114651 -5.567917,7.240441 -1.901583,10.343068 -1.768688,3.551974 -3.203452,7.278678 -4.564615,10.961604 -1.060855,2.87038 -1.379526,6.125416 -1.376244,9.419425 -0.858706,0.487177 -1.626578,1.075535 -2.153692,1.83411 -0.56922,0.81122 -0.918152,1.701158 -1.149665,2.575448 l -1.96e-4,0.0018 -1.97e-4,0.0018 c -0.133649,0.51081 -0.234417,1.034756 -0.29581,1.568943 l -9.64e-4,0.009 z m 2.58733,0.379804 c 0.0485,-0.416101 0.126295,-0.830972 0.233587,-1.241029 0.184804,-0.696526 0.448742,-1.337325 0.817472,-1.861792 l 1.97e-4,-0.0018 0.0023,-0.0032 c 0.370986,-0.53389 1.023584,-1.059675 1.836596,-1.424517 l 0.698291,-0.313463 -0.01071,-0.751095 c -0.05234,-3.352762 0.279669,-6.589957 1.268754,-9.266145 1.472117,-3.983141 2.963117,-7.957406 4.861851,-11.602153 l 0.566298,-1.090321 -1.190669,-0.59095 c -0.03163,-0.01571 -0.06085,-0.03106 -0.08979,-0.04828 -2.57518,-1.606609 -1.796855,-5.918562 0.655484,-6.523606 l 0.002,2.96e-4 c 1.629414,-0.403602 2.58096,-0.01875 3.322175,0.684592 l 1.015119,0.963668 0.881487,-0.97496 c 4.082286,-4.516521 8.940597,-7.365656 15.548956,-10.613403 1.143177,-0.561824 2.407962,-1.041711 3.766775,-1.441657 l 0.936482,-0.275493 -0.09639,-0.946452 c -0.140748,-1.397542 0.405317,-2.535518 0.950626,-3.214711 0.342619,-0.423158 0.743893,-0.780893 1.186505,-1.036266 l 0.0021,-0.0015 0.0022,-0.0015 c 1.07689,-0.627471 3.118136,-0.394328 4.128692,-0.0063 l 0.652705,0.472978 c 0.122311,0.09035 0.199224,0.146942 0.264017,0.195053 0.374004,0.352404 0.692573,0.784795 0.921255,1.261257 l -1.96e-4,0.0018 0.002,2.96e-4 c 0.157308,0.326687 0.26935,0.651249 0.345466,0.9733 l 0.252133,1.066724 1.133713,-0.03587 c 4.162552,-0.13093 8.505557,0.176631 12.572579,0.809831 2.236017,0.347666 4.637976,0.855636 7.07225,1.499754 l 1.193157,0.314153 0.3338,-1.090887 c 0.223896,-0.729958 0.587787,-1.347187 0.945782,-1.79308 0.412681,-0.509348 0.899423,-0.944334 1.440715,-1.256643 l 0.0021,-0.0015 0.0021,-0.0015 c 1.353152,-0.788446 3.797592,-0.496378 5.032941,-0.01685 l 0.802354,0.57945 c 0.145248,0.107372 0.246752,0.177961 0.329023,0.239563 0.462112,0.433948 0.849986,0.964664 1.129134,1.546265 l -1.97e-4,0.0018 c 0.72747,1.510735 0.702101,3.028637 0.251856,4.347218 l -0.349963,1.024602 1.056073,0.508531 c 3.201174,1.538111 5.980908,3.28563 7.912672,5.091976 5.78911,5.413274 7.79407,9.300575 10.26497,15.02059 2.45914,5.692743 3.70543,9.919153 4.6642,17.4641 0.22308,1.755585 0.23214,3.806704 0.0611,6.003207 l -0.10725,1.382375 1.46764,0.01298 c 1.97479,0.01646 4.1804,2.051341 3.18127,4.572861 -0.51604,1.226692 -1.21218,1.75939 -1.92855,1.994094 -0.71814,0.235279 -1.53201,0.154026 -2.24743,-0.151348 l -1.41973,-0.605646 -0.32333,1.39153 c -1.00758,4.350641 -2.43393,8.644425 -3.95947,12.061835 -1.92936,4.322057 -3.95867,8.205107 -6.50548,11.513241 l -0.69567,0.90469 0.95023,0.77329 c 0.0213,0.0173 0.0412,0.0339 0.0624,0.0514 0.25627,0.21591 0.4918,0.42416 0.69627,0.62899 0.24858,0.25658 0.46472,0.56105 0.66576,0.87784 0.28913,1.05663 0.42107,2.20242 0.16286,3.20495 -0.27096,1.05199 -0.88978,1.98535 -2.40879,2.75093 -0.32248,0.15538 -0.65982,0.29261 -1.01077,0.40829 l -0.002,0.002 c -0.59812,0.19491 -1.19143,0.31027 -1.75016,0.30887 l -0.002,-3e-4 -0.004,-5.9e-4 c -1.23744,0.003 -2.733915,-0.75414 -3.663257,-1.91617 l -0.733257,-0.91725 -0.989324,0.55195 c -6.075811,3.38418 -13.780107,4.69267 -21.487229,5.0733 l -0.99945,0.0489 -0.140674,0.93419 c -0.05047,0.33204 -0.156113,0.66564 -0.278993,0.99525 -0.725764,0.90298 -1.650038,1.74114 -2.742525,2.17513 -1.140504,0.45305 -2.442478,0.54964 -4.236891,-0.17785 -0.375189,-0.15919 -0.745579,-0.34378 -1.105824,-0.55073 l -0.0018,-0.002 c -5.33e-4,-3.1e-4 -0.0014,1e-5 -0.002,-3e-4 -0.610809,-0.35366 -1.151867,-0.75398 -1.564813,-1.20571 l -0.0034,-0.004 -0.0018,-0.002 c -0.398628,-0.43187 -0.710358,-0.98078 -0.902896,-1.59582 l -0.258409,-0.82697 -0.895197,-0.1103 c -4.568667,-0.55415 -9.074265,-1.68565 -13.301311,-3.76145 -2.983504,-1.46513 -6.029052,-3.63711 -8.875667,-6.12615 l -0.623858,-0.54507 -0.754338,0.27579 c -1.313126,0.48122 -3.323955,0.25591 -4.410835,-1.23271 -0.346369,-0.47678 -0.596405,-1.03081 -0.72761,-1.60387 l 0.002,2.9e-4 c -0.216816,-0.9518 -0.07185,-1.714116 0.163603,-2.307468 l 0.26273,-0.662197 -0.496429,-0.576791 C 30.631748,95.768451 28.859135,93.397299 27.526346,91.320769 23.50292,85.052147 23.130632,81.398826 22.104872,75.029185 l -0.12608,-0.777718 -0.789422,-0.265659 c -1.281153,-0.430921 -2.208884,-1.362523 -2.554662,-1.77167 l -0.002,-2.96e-4 c -0.602425,-0.711114 -1.047872,-1.566498 -1.31724,-2.468339 -0.226618,-0.765134 -0.325433,-1.53233 -0.255858,-2.245291 z"
         id="path1" /><path
         style="fill:url(#radialGradient12);stroke:none;stroke-width:0.220353"
         d="m 20.678685,52.169286 c 2.424933,-6.561191 4.930879,-13.211202 9.34155,-18.504662 4.410671,-5.293455 9.677712,-8.41805 16.808312,-11.922458 7.130604,-3.504425 18.199813,-3.789334 27.806811,-2.293595 9.606993,1.49573 21.982758,5.821766 27.901922,11.356641 5.91916,5.534876 8.08888,9.701987 10.57792,15.464009 2.48907,5.762027 3.78719,10.17749 4.75549,17.79741 0.96828,7.619915 -1.90695,19.528801 -5.36348,27.271874 -3.4565,7.743076 -7.28229,14.237045 -13.996763,18.635275 -6.714468,4.39824 -15.545742,5.90629 -24.234224,6.29547 -8.68849,0.38918 -18.168655,-0.078 -26.662132,-4.24887 C 39.120615,107.84944 30.685424,98.547626 26.42755,91.913718 22.169671,85.279811 21.819266,81.252211 20.727107,74.563752 19.634944,67.875291 18.253754,58.730475 20.678685,52.169286 Z"
         id="path1-8"
         sodipodi:nodetypes="zzzzzzzzzzzzzz" /><path
         style="fill:#fff6d5;stroke:#d4aa00;stroke-width:0.0853995"
         d="m 81.741093,24.387509 c 1.109004,4.843747 5.890042,6.07834 8.988339,4.971234 0.526144,-0.188528 1.019052,-0.454382 1.441966,-0.799535 1.958303,-1.580756 3.391998,-4.997635 1.787351,-8.330009 -0.349175,-0.727502 -0.834021,-1.406134 -1.442021,-1.970325 -0.143678,-0.11395 -0.296819,-0.21649 -0.444257,-0.325969 L 91.073464,17.21032 c -1.562054,-0.641536 -4.375552,-1.062845 -6.309964,0.06429 -0.689685,0.397929 -1.280666,0.932079 -1.769853,1.536907 -0.927322,1.155007 -1.810425,3.127007 -1.252554,5.575991 z"
         id="path2"
         sodipodi:nodetypes="sscsccsscs" /><path
         style="fill:#fff6d5;stroke:#d4aa00;stroke-width:0.0844135"
         d="m 66.302186,108.46001 c -0.983296,0.1489 -1.926807,0.48235 -2.745336,0.99252 -3.020528,1.89059 -3.158624,6.21324 -0.99643,8.55572 0.539806,0.59052 1.201415,1.07119 1.900219,1.47536 0.410898,0.23627 0.835811,0.44969 1.27275,0.63451 4.177014,1.69924 6.972148,-0.36006 8.613092,-2.4723 0.200035,-0.49463 0.345206,-1.0134 0.41134,-1.5467 0.03969,-0.35975 0.05119,-0.72332 0.05494,-1.08682 7e-4,-0.69594 -0.06865,-1.40322 -0.294482,-2.08135 -0.14161,-0.42658 -0.350982,-0.83523 -0.610624,-1.21392 -1.359802,-2.00043 -4.285895,-3.75615 -7.605469,-3.25702 z"
         id="path3"
         sodipodi:nodetypes="ssccsssccss" /><path
         style="fill:#fff6d5;stroke:#d4aa00;stroke-width:0.0588328"
         d="m 114.63875,77.616739 c 1.57474,2.15682 6.03397,3.129391 7.76247,-0.998055 1.83466,-4.588241 -4.52872,-8.678024 -7.74436,-4.702197 -0.22162,0.276047 -0.40906,0.577432 -0.55823,0.896622 -0.0301,0.06266 -0.0602,0.125645 -0.0828,0.191375 -0.0139,0.01526 -0.0138,0.03631 -0.0169,0.05547 -0.0157,0.01555 -0.0106,0.04326 -0.0321,0.05593 -0.0119,0.01883 -0.01,0.04312 -0.0223,0.06138 -0.004,0.01644 -0.003,0.0348 -0.0161,0.04768 -0.004,0.01734 -0.004,0.03608 -0.0159,0.04557 -0.004,0.02825 -0.0218,0.05242 -0.0222,0.08177 -0.001,0.01697 -0.0141,0.02919 -0.0108,0.04551 -0.0126,0.0144 -0.0144,0.03173 -0.0152,0.04901 -0.0123,0.01185 -0.0249,0.02698 -0.0158,0.04467 -10e-4,0.01612 -0.0271,0.02807 -0.0108,0.04483 -0.006,0.01999 0.004,0.04674 -0.0164,0.06059 -0.005,0.04208 -0.0228,0.08072 -0.0322,0.12152 -0.007,0.01877 -0.0237,0.03297 -0.0115,0.05213 -0.009,0.0269 0.004,0.05785 -0.0128,0.08277 -0.0655,0.164152 -0.40391,2.005252 0.87511,3.763581 z"
         id="path4"
         sodipodi:nodetypes="ssccscssccsccsssccss" /><path
         style="fill:#fff6d5;stroke:#d4aa00;stroke-width:0.0773955"
         d="m 61.60794,84.531051 c 0.879737,0.314054 1.81617,0.469291 2.735533,0.434613 0.737639,-0.02913 1.466236,-0.184805 2.115804,-0.489805 0.386765,-0.187123 0.7163,-0.457583 1.024889,-0.740981 1.343297,-1.253434 2.291187,-2.889359 1.8212,-4.894996 -0.157381,-0.687839 -0.468001,-1.344499 -0.846225,-1.958701 -0.223069,-0.360084 -0.46871,-0.708762 -0.738078,-1.040751 -0.515454,-0.61705 -1.166943,-1.125081 -1.870047,-1.534972 -2.644145,-1.534732 -5.797438,-1.369867 -7.488506,0.686314 -0.206847,0.258512 -0.392342,0.532274 -0.571467,0.809339 -0.337611,0.533283 -0.623177,1.105748 -0.766112,1.724024 -0.09028,0.388733 -0.116213,0.793233 -0.08635,1.196642 0.148073,2.125922 1.701123,4.746327 4.669366,5.809278 z"
         id="path8"
         sodipodi:nodetypes="ssssccscsccss" /><path
         style="fill:#fff6d5;stroke:#d4aa00;stroke-width:0.0919506"
         d="M 28.919471,65.320662 C 28.41509,64.37048 27.719292,63.50052 26.870136,62.794224 c -3.397531,-2.816052 -8.188688,-1.515951 -9.853353,0.879685 -0.47035,0.669005 -0.776623,1.435673 -0.985041,2.222745 -0.121007,0.462494 -0.211792,0.933992 -0.266641,1.411241 -0.08885,0.898834 0.04027,1.820115 0.302365,2.705049 0.314444,1.05359 0.837337,2.068251 1.572431,2.935901 0.638481,0.755492 2.632478,2.751498 5.702565,2.498088 0.413549,-0.03914 0.821626,-0.107406 1.226964,-0.18334 0.773801,-0.151881 1.536054,-0.376239 2.211997,-0.750624 0.425353,-0.235062 0.807429,-0.53392 1.13887,-0.876454 0.588688,-0.603041 1.036256,-1.323888 1.358841,-2.09248 0.406566,-0.978611 1.120506,-3.427803 -0.35966,-6.223363 z"
         id="path9"
         sodipodi:nodetypes="ssccscssccscs" /><path
         style="fill:#fff6d5;stroke:#d4aa00;stroke-width:0.0621294"
         d="m 25.38626,40.321686 c 0.308689,0.188072 0.653242,0.308351 0.998021,0.410138 0.275551,0.07926 0.553214,0.15103 0.832929,0.211526 0.773331,0.160685 1.695744,0.105294 2.519469,-0.189044 4.961593,-1.777924 3.002427,-10.756709 -3.423223,-9.165093 -3.627242,0.894917 -4.496762,6.505471 -0.927162,8.732481 z"
         id="path10"
         sodipodi:nodetypes="sssscs" /><path
         style="fill:#fff6d5;stroke:#d4aa00;stroke-width:0.0730887"
         d="m 50.914175,20.9532 c 0.949142,4.145501 5.040978,5.202122 7.692644,4.254611 0.450301,-0.161355 0.872154,-0.388889 1.234103,-0.684267 1.676008,-1.352894 2.903031,-4.277215 1.5297,-7.129227 -0.298841,-0.622625 -0.713796,-1.203423 -1.234152,-1.68628 -0.122953,-0.09764 -0.254028,-0.185294 -0.380213,-0.279 L 58.90126,14.810621 c -1.33688,-0.549055 -3.744807,-0.909621 -5.400363,0.05502 -0.590268,0.340563 -1.096048,0.79771 -1.514727,1.315362 -0.79364,0.988495 -1.549442,2.676235 -1.071995,4.772198 z"
         id="path2-1"
         sodipodi:nodetypes="sscsccsscs" /><path
         style="fill:#fff6d5;stroke:#d4aa00;stroke-width:0.0787604"
         d="m 96.285291,104.85219 c -0.422536,0.77027 -0.682237,1.62977 -0.738614,2.51497 -0.201927,3.27162 3.02844,6.09762 5.999333,6.09069 0.74607,0.002 1.47458,-0.1494 2.16487,-0.3746 0.40483,-0.1333 0.79984,-0.29065 1.17954,-0.47435 3.57811,-1.79886 3.52807,-5.02208 2.80793,-7.48501 -0.26916,-0.45007 -0.58669,-0.87766 -0.95845,-1.26008 -0.25342,-0.2546 -0.52522,-0.49218 -0.80116,-0.72443 -0.53183,-0.44017 -1.11054,-0.83933 -1.75233,-1.11248 -0.40348,-0.17212 -0.83021,-0.28633 -1.26144,-0.34704 -2.2716,-0.32876 -5.210502,0.57419 -6.639674,3.17233 z"
         id="path3-7"
         sodipodi:nodetypes="ssccsssccss" /><path
         style="fill:#fff6d5;stroke:#d4aa00;stroke-width:0.0546413"
         d="m 103.62973,46.587361 c 1.46256,2.003161 5.60409,2.90644 7.20943,-0.926951 1.70396,-4.261349 -4.20607,-8.059758 -7.1926,-4.367183 -0.20584,0.256368 -0.37993,0.536285 -0.51847,0.832734 -0.0279,0.0582 -0.0558,0.116705 -0.0769,0.177737 -0.0127,0.01421 -0.0122,0.03382 -0.0163,0.05145 -0.0145,0.01445 -0.0108,0.04001 -0.0298,0.05194 -0.0105,0.01757 -0.009,0.0401 -0.0208,0.057 -0.004,0.0152 -0.003,0.03233 -0.0145,0.04437 -0.004,0.01605 -0.004,0.03352 -0.0153,0.04225 -0.004,0.02621 -0.0203,0.04868 -0.0206,0.07594 -0.001,0.01576 -0.0137,0.02702 -0.011,0.04213 -0.0112,0.01344 -0.0129,0.02955 -0.0135,0.04561 -0.0109,0.01107 -0.0232,0.02506 -0.0142,0.04156 -0.001,0.01496 -0.0252,0.02606 -0.01,0.04166 -0.005,0.01864 0.003,0.04331 -0.0157,0.0562 -0.005,0.03908 -0.0212,0.07496 -0.0299,0.112861 -0.006,0.01747 -0.0219,0.03063 -0.0116,0.04828 -0.009,0.02484 0.003,0.05363 -0.0114,0.07696 -0.0609,0.152453 -0.37513,1.862389 0.81276,3.495447 z"
         id="path4-1"
         sodipodi:nodetypes="ssccscssccsccsssccss" /><path
         style="fill:#fff6d5;stroke:#d4aa00;stroke-width:0.0701426"
         d="m 52.475979,48.085716 c 0.179398,0.783547 0.518824,1.54483 1.007189,2.216209 0.392911,0.538142 0.886228,1.018117 1.463851,1.378489 0.348505,0.212329 0.737496,0.348121 1.126744,0.463036 1.710823,0.492197 3.541108,0.5342 4.969132,-0.631306 0.491641,-0.396861 0.880825,-0.895306 1.201009,-1.426899 0.187044,-0.312648 0.353351,-0.63749 0.493957,-0.973241 0.253943,-0.635069 0.349484,-1.327264 0.337846,-2.018062 -0.04933,-2.59513 -1.762423,-4.87921 -4.312698,-5.304488 -0.317754,-0.04914 -0.637474,-0.07622 -0.956748,-0.09719 -0.610952,-0.035 -1.228368,-0.01529 -1.812469,0.129386 -0.367446,0.09065 -0.715803,0.235691 -1.035365,0.421889 -1.68868,0.974315 -3.084987,3.197115 -2.482452,5.842175 z"
         id="path8-1"
         sodipodi:nodetypes="ssssccscsccss" /><path
         style="fill:#fff6d5;stroke:#d4aa00;stroke-width:0.0577754"
         d="m 93.54444,84.10922 c 0.667361,0.09687 1.354923,0.06512 2.006116,-0.106935 2.600245,-0.69212 3.480082,-3.645506 2.757996,-5.400852 -0.199858,-0.493017 -0.505022,-0.938228 -0.852985,-1.340737 -0.204946,-0.235764 -0.424538,-0.459354 -0.658923,-0.66661 -0.446187,-0.38287 -0.975494,-0.662043 -1.529108,-0.859113 -0.659902,-0.233409 -1.367413,-0.344926 -2.066606,-0.292085 -0.608293,0.04518 -2.315861,0.322611 -3.186124,1.997641 -0.114584,0.227511 -0.211977,0.463125 -0.304414,0.70021 -0.172814,0.455198 -0.303531,0.93164 -0.326693,1.419943 -0.01485,0.307079 0.01818,0.615818 0.09086,0.914879 0.126273,0.529172 0.360993,1.029912 0.661839,1.484238 0.384416,0.576332 1.445805,1.862496 3.408033,2.149429 z"
         id="path9-5"
         sodipodi:nodetypes="ssccscssccscs" /><path
         style="fill:#f4efe0;fill-opacity:1;stroke:#d4aa00;stroke-width:0.0683203"
         d="m 84.923804,58.417736 c 0.339448,0.206814 0.718334,0.339079 1.097469,0.451008 0.303008,0.08717 0.60834,0.166069 0.915928,0.232597 0.850389,0.176699 1.864716,0.115785 2.770522,-0.207882 5.455994,-1.955089 3.301606,-11.828569 -3.764332,-10.078351 -3.988682,0.984092 -4.944845,7.15371 -1.019488,9.602639 z"
         id="path10-2"
         sodipodi:nodetypes="sssscs" /><path
         style="fill:#fff6d5;stroke:#d4aa00;stroke-width:0.0655694"
         d="m 31.497099,101.89356 c 0.167701,0.73246 0.484995,1.4441 0.941519,2.0717 1.82851,2.50439 5.434812,2.4632 7.066817,1.13131 0.459586,-0.37098 0.823395,-0.83693 1.122702,-1.33386 0.17485,-0.29226 0.330313,-0.59592 0.46175,-0.90978 0.237386,-0.59366 0.326697,-1.24073 0.315819,-1.88648 -0.01462,-0.76925 -0.182708,-1.54866 -0.527953,-2.265629 -0.299504,-0.624012 -1.305718,-2.326495 -3.50355,-2.693 -0.297032,-0.04597 -0.59591,-0.07125 -0.894367,-0.09086 -0.571112,-0.03273 -1.148276,-0.0143 -1.694289,0.120949 -0.34349,0.08475 -0.669135,0.22033 -0.967859,0.394388 -0.529537,0.305525 -0.983289,0.71564 -1.358886,1.180032 -0.475315,0.592015 -1.452455,2.126892 -0.961706,4.28122 z"
         id="path11"
         sodipodi:nodetypes="ssccscssccscs" /></g></g></svg>
