<?xml version="1.0" encoding="UTF-8" standalone="no"?>
<!-- Created with Inkscape (http://www.inkscape.org/) -->

<svg
   width="512"
   height="512"
   viewBox="0 0 135.46667 135.46667"
   version="1.1"
   id="svg1"
   inkscape:version="1.4.2 (f4327f4, 2025-05-13)"
   sodipodi:docname="seta_splash_logo.svg"
   inkscape:export-filename="seta_splash_logo.png"
   inkscape:export-xdpi="96"
   inkscape:export-ydpi="96"
   xmlns:inkscape="http://www.inkscape.org/namespaces/inkscape"
   xmlns:sodipodi="http://sodipodi.sourceforge.net/DTD/sodipodi-0.dtd"
   xmlns="http://www.w3.org/2000/svg"
   xmlns:svg="http://www.w3.org/2000/svg">
  <sodipodi:namedview
     id="namedview1"
     pagecolor="#ffffff"
     bordercolor="#cccccc"
     borderopacity="1"
     inkscape:showpageshadow="0"
     inkscape:pageopacity="1"
     inkscape:pagecheckerboard="0"
     inkscape:deskcolor="#d1d1d1"
     inkscape:document-units="px"
     inkscape:zoom="2.0888419"
     inkscape:cx="235.05848"
     inkscape:cy="207.05253"
     inkscape:window-width="1920"
     inkscape:window-height="1009"
     inkscape:window-x="-8"
     inkscape:window-y="-8"
     inkscape:window-maximized="1"
     inkscape:current-layer="layer1" />
  <defs
     id="defs1" />
  <g
     inkscape:label="Layer 1"
     inkscape:groupmode="layer"
     id="layer1">
    <path
       d="m 55.210345,71.29013 q 0,1.638214 -1.308372,2.62774 -1.187431,0.901567 -2.891614,0.901567 -0.659683,0 -0.747641,-0.03298 -0.18691,-0.08796 -0.18691,-0.538741 0,-0.241884 -0.06597,-0.725652 -0.05497,-0.483768 -0.05497,-0.714658 0,-0.142931 0.197905,-0.18691 0.142931,-0.03298 0.406805,0 0.340836,0.03298 0.329841,0.03298 2.078004,0 2.078004,-1.275388 0,-0.60471 -0.912563,-1.110467 -1.484288,-0.81361 -1.704182,-1.000521 -0.912563,-0.780625 -0.912563,-2.045019 0,-1.649209 1.242405,-2.572766 1.121462,-0.824604 2.836639,-0.824604 0.153926,0 0.219895,0.142931 0.07696,0.142932 0.274868,0.890573 0.2089,0.747641 0.2089,0.901568 0,0.120942 -0.2089,0.153926 -0.703663,0.09895 -1.41832,0.18691 -0.846594,0.230889 -0.846594,0.923557 0,0.494763 0.890573,1.00052 1.319367,0.736647 1.671198,1.066489 0.901568,0.857589 0.901568,2.198945 z m 10.895774,-2.517792 q 0,0.81361 -0.703662,1.088478 -0.472774,0.175915 -6.805736,0.648689 0.142931,0.967536 1.066488,1.649209 0.879578,0.648688 1.891093,0.648688 1.737167,0 3.188471,-1.121462 0.175916,-0.142931 0.351831,-0.285863 0.08796,0 0.109948,0.02199 0.03298,0.02199 0.417799,0.769631 0.384816,0.736646 0.384816,0.79162 0,0.06597 -0.175916,0.252879 -1.616225,1.715177 -4.145012,1.715177 -2.550777,0 -4.068049,-1.517272 -1.517272,-1.528267 -1.517272,-4.068049 0,-2.264914 1.451304,-3.947107 1.528267,-1.748161 3.749202,-1.748161 2.067008,0 3.452344,1.517272 1.352351,1.473293 1.352351,3.584281 z m -2.616745,-0.670679 q 0,-0.912562 -0.725652,-1.616224 -0.714657,-0.703663 -1.616225,-0.703663 -1.011514,0 -1.803135,0.81361 -0.780625,0.81361 -0.780625,1.825124 0,0.23089 0.39581,0.23089 1.627219,0 3.892133,-0.329842 0.637694,-0.08796 0.637694,-0.219895 z m 10.28007,4.551817 q 0,0.241884 -0.04398,0.659684 -0.05497,0.516752 -0.06597,0.670678 -0.011,0.197905 -0.03298,0.241884 -0.04398,0.07696 -0.2089,0.153926 -0.901568,0.428795 -2.83664,0.428795 -2.572766,0 -2.572766,-2.330882 0,-0.934552 0.04398,-2.803656 0.04398,-1.880098 0.04398,-2.81465 0,-0.450784 -0.450784,-0.483768 -0.406805,0 -0.802615,-0.01099 -0.230889,-0.05497 -0.230889,-0.901568 0,-0.318847 0.04398,-0.670678 0.03298,-0.263874 0.351831,-0.318847 0.274868,0 0.538742,-0.01099 0.505757,-0.02199 0.505757,-0.450784 0,-0.439789 -0.03298,-1.341357 -0.02199,-0.901567 -0.02199,-1.352351 0,-0.802615 0.307853,-0.802615 0.09895,0 2.067008,0.340836 0.252879,0.03299 0.252879,0.241884 0,0.483768 -0.07696,1.451304 -0.06597,0.967536 -0.06597,1.451304 0,0.318847 0.296857,0.318847 h 2.638735 q 0.18691,0 0.18691,0.131937 0,0.131937 -0.04398,0.428794 -0.03298,0.285863 -0.03298,0.428795 0,0.164921 0.011,0.505757 0.01099,0.340837 0.01099,0.505758 0,0.208899 -0.307853,0.208899 -0.439789,0 -1.330362,-0.05497 -0.890573,-0.06597 -1.330362,-0.06597 -0.08796,0 -0.131936,0.6267 -0.05497,0.780626 -0.05497,2.187951 v 1.638214 q 0,0.945546 0.175916,1.319367 0.263873,0.571726 1.088478,0.571726 0.340836,0 1.00052,-0.142932 0.659683,-0.153926 0.97853,-0.153926 0.131937,0 0.131937,0.197905 z m 12.25912,-7.927198 q 0,0.04398 -0.03298,0.197905 -0.428795,2.517793 -0.428795,4.342917 0,0.109948 0.274868,4.936633 l 0.011,0.153926 q 0.01099,0.318847 -0.296857,0.318847 -0.296858,0 -0.912563,0.06597 -0.60471,0.07696 -0.901567,0.07696 -0.2089,0 -0.318847,-0.76963 -0.109948,-0.769631 -0.2089,-0.769631 -0.06597,0 -0.593715,0.428794 -0.648689,0.527747 -1.20942,0.802615 -0.868584,0.439789 -1.737167,0.439789 -2.132977,0 -3.595276,-1.704182 Q 74.693,71.619972 74.693,69.454011 q 0,-2.44083 1.396331,-4.035065 1.462298,-1.660204 3.848154,-1.660204 1.682193,0 2.935592,1.165441 0.186911,0.219895 0.582721,0.637695 0.03298,0.03298 0.06597,0.03298 0.06597,0 0.18691,-0.692668 0.120942,-0.692668 0.307853,-0.692668 0.296857,0 1.110467,0.164921 0.901568,0.197905 0.901568,0.351831 z m -2.803656,4.595796 q 0,-1.352351 -0.802615,-2.319887 -0.846594,-1.044499 -2.165961,-1.044499 -1.319367,0 -2.198945,1.033504 -0.846594,0.989525 -0.846594,2.330882 0,1.330362 0.846594,2.308893 0.879578,1.022509 2.198945,1.022509 1.286383,0 2.154967,-1.044499 0.813609,-0.97853 0.813609,-2.286903 z"
       id="text1"
       style="font-size:22.5172px;line-height:1.7;font-family:'Berlin Sans FB';-inkscape-font-specification:'Berlin Sans FB, Normal';text-align:center;text-anchor:middle;fill:#666666;stroke-width:5.36363"
       aria-label="seta" />
  </g>
</svg>
