<?xml version="1.0" encoding="UTF-8" standalone="no"?>
<!-- Created with Inkscape (http://www.inkscape.org/) -->

<svg
   width="210mm"
   height="297mm"
   viewBox="0 0 210 297"
   version="1.1"
   id="svg1"
   inkscape:version="1.4.2 (f4327f4, 2025-05-13)"
   sodipodi:docname="volcan.svg"
   xmlns:inkscape="http://www.inkscape.org/namespaces/inkscape"
   xmlns:sodipodi="http://sodipodi.sourceforge.net/DTD/sodipodi-0.dtd"
   xmlns="http://www.w3.org/2000/svg"
   xmlns:svg="http://www.w3.org/2000/svg">
  <sodipodi:namedview
     id="namedview1"
     pagecolor="#ffffff"
     bordercolor="#cccccc"
     borderopacity="1"
     inkscape:showpageshadow="0"
     inkscape:pageopacity="1"
     inkscape:pagecheckerboard="0"
     inkscape:deskcolor="#d1d1d1"
     inkscape:document-units="mm"
     showguides="true"
     inkscape:zoom="2.9540685"
     inkscape:cx="462.0746"
     inkscape:cy="408.41978"
     inkscape:window-width="1920"
     inkscape:window-height="1009"
     inkscape:window-x="-8"
     inkscape:window-y="-8"
     inkscape:window-maximized="1"
     inkscape:current-layer="layer1" />
  <defs
     id="defs1" />
  <g
     inkscape:label="Layer 1"
     inkscape:groupmode="layer"
     id="layer1">
    <rect
       style="fill:#373e48;fill-opacity:1;stroke:#dbe3e2;stroke-width:0.0996006;stroke-dasharray:none"
       id="rect14"
       width="252.21713"
       height="190.23763"
       x="-26.869724"
       y="4.6574187" />
    <path
       style="fill:#b3b3b3;fill-opacity:1;stroke:none;stroke-width:2.37519"
       d="m 101.98638,121.22784 c -4.186063,2.11631 -8.469472,2.4607 -12.857141,2.3411 -1.7225,-0.0469 -3.652897,0.0514 -5.301917,-0.97545 -0.496694,-0.30931 -0.87674,-0.92534 -1.325478,-1.36565 -0.611845,-0.60037 -1.229408,-1.1886 -1.855671,-1.75585 -2.46914,-2.23646 -3.379108,-2.86272 -4.771723,-7.21844 -0.133301,-0.41693 -0.461506,-4.36182 -0.397644,-4.48714 0.767539,-1.50629 2.416353,-1.36565 3.446245,-1.36565 0.532029,0 1.214373,-0.35863 1.590574,0.19509 0.08294,0.12208 0.06077,1.77205 0,1.95093 -0.126519,0.37244 -0.346078,0.65931 -0.530191,0.97547 -0.08133,0.13965 -0.141093,0.36736 -0.265095,0.39018 -0.86146,0.15849 -3.562171,-0.10448 -4.241533,-0.39018 -0.798177,-0.33567 -1.491636,-1.07495 -2.253314,-1.56075 -0.564656,-0.36014 -1.172698,-0.57039 -1.723122,-0.97547 -3.478419,-2.55989 -8.989568,-8.225701 -11.134022,-10.925214 -0.250698,-0.315589 -2.52585,-4.088848 -2.120766,-6.04789 0.619065,-2.993888 4.056224,-7.184492 5.567011,-8.974284 1.595946,-1.890676 3.289847,-4.096956 5.434463,-4.096956 0.265096,0 0.543795,-0.123387 0.795287,0 1.108074,0.543647 1.879492,1.825961 2.385862,3.316583 0.106406,0.313232 0.207389,0.63572 0.265096,0.975469 0.08592,0.50586 -0.0836,0.780369 0,0.780369 0.04418,0 0.017,-0.135063 0,-0.195093 -0.205331,-0.725327 -0.464469,-1.416452 -0.66274,-2.146023 -0.243937,-0.897609 -0.513489,-1.789837 -0.662739,-2.731305 -0.298035,-1.880009 -0.418249,-4.786342 0,-6.633166 0.201504,-0.889761 0.735062,-1.534668 1.060383,-2.341118 0.689144,-1.708341 1.582321,-5.324445 2.916054,-6.633168 0.469166,-0.460366 1.704819,-0.566145 2.120766,-0.585276 0.971544,-0.04469 1.947797,-0.125751 2.916053,0 0.60279,0.07828 3.273476,1.069661 3.446244,2.341114 0.05199,0.38261 0,0.780373 0,1.170561 0,0.195093 0.04192,0.400199 0,0.58528 -0.01398,0.06169 -0.129158,0.06483 -0.132547,0 -0.04405,-0.842914 0.06583,-1.696381 0,-2.536213 -0.717378,-9.151016 -0.166451,4.709634 -0.530192,-5.462606 -0.0093,-0.259764 -0.05078,-0.531218 0,-0.780372 0.08517,-0.417845 0.160534,-0.908815 0.397644,-1.170561 2.208305,-2.437753 5.359337,-2.881508 7.820325,-3.90186 6.885527,-2.854817 0.999686,-0.581636 6.759942,-3.316583 0.221422,-0.105131 1.581972,-0.677936 1.85567,-0.390189 1.121206,1.178765 1.373746,4.327577 2.120766,4.877329 0.0395,0.02908 0,-0.13006 0,-0.195092 0,-0.455216 -0.075,-0.924026 0,-1.365653 0.10554,-0.621358 0.27726,-1.234655 0.53019,-1.755839 0.56735,-1.169092 2.32015,-2.568817 3.3137,-2.731302 0.66673,-0.10904 1.43471,1.344502 1.72312,1.95093 0.11331,0.238256 0.19171,0.510348 0.26509,0.780372 0.0164,0.06038 -0.0312,0.149109 0,0.195093 0.046,0.06772 5.54091,-1.141315 6.09721,-1.170557 1.58956,-0.08356 3.18136,-0.03776 4.77172,0 1.14945,0.02729 2.31287,-0.08819 3.44624,0.195092 2.83229,0.707901 8.60502,4.126669 11.13403,6.047886 0.22647,0.172043 0.20501,1.345214 0,1.560746 -0.50364,0.529492 -2.4063,1.44902 -2.91606,1.365652 -1.17565,-0.192267 -2.4607,-2.315895 -1.85567,-4.096956 0.11178,-0.329034 0.29026,-0.677366 0.53019,-0.780372 0.8578,-0.368248 1.75896,-0.50805 2.65096,-0.58528 4.11304,-0.356107 6.39119,0.351854 10.07364,2.926397 0.89784,0.627718 3.12852,2.585704 3.84389,3.901865 0.138,0.253902 0,0.650308 0,0.975465 0,0.390184 0.1097,0.815346 0,1.170556 -0.1822,0.589987 -1.89808,2.083608 -2.25331,1.560747 -0.0625,-0.09196 0,-0.260124 0,-0.390185 0,-0.325156 -0.14548,-0.730764 0,-0.975465 0.37183,-0.625476 2.85445,-1.16017 3.04859,-1.17056 4.08358,-0.218565 6.53592,-0.317501 9.54345,3.70677 0.30843,0.412684 0.73459,0.956427 0.66274,1.560745 -0.49301,4.146546 -1.91585,8.448513 -4.77172,9.94975 -0.0798,0.04193 -1.09007,0.368346 -1.32548,0.195093 -0.51978,-0.382526 1.14438,-0.467628 1.72312,-0.390188 1.46267,0.195715 2.94826,0.261888 4.37408,0.780372 2.34661,0.853315 4.61856,2.11013 6.89249,3.316584 1.74138,0.923905 6.1523,3.271627 7.55523,5.852797 1.22788,2.259093 -0.88613,4.56362 -1.72312,5.462605 -0.94293,1.012769 -2.07193,1.595279 -3.0486,2.536211 -3.45533,3.328884 -6.11443,6.987657 -10.07364,8.974283 -0.72191,0.36224 -1.49904,0.41876 -2.25331,0.58528 -0.21847,0.0482 -0.50653,0.22992 -0.66274,0 -0.0442,-0.065 0.0711,-0.21175 0.13254,-0.19509 1.64486,0.44598 3.31522,0.79275 4.90428,1.56075 1.32957,0.64258 9.79534,6.30135 8.48306,9.94975 -0.25234,0.70155 -0.86302,0.95724 -1.32548,1.36565 -1.67557,1.47973 -2.19854,1.28481 -4.50662,1.95093 -2.23858,0.64606 -4.73477,1.38016 -7.02504,1.56074 -1.32358,0.10434 -2.65096,0 -3.97644,0 -0.81929,0 -3.36223,0.33122 -4.37408,-0.58527 -0.19187,-0.17379 -0.3435,-0.85904 -0.13255,-0.97547 0.70449,-0.38885 1.50114,-0.16809 2.25332,-0.19509 1.06006,-0.038 2.13519,-0.25659 3.18115,0 0.5847,0.14344 1.08227,0.72167 1.59057,1.17056 1.45424,1.28427 1.3494,1.52901 1.59057,4.48713 0.0425,0.52056 -0.014,1.06635 -0.13254,1.56075 -0.98884,4.12375 -3.54494,3.88802 -5.96466,4.87733 -1.02105,0.41746 -1.34942,0.78038 -2.38586,0.78038 -0.39765,0 -0.79929,0.0828 -1.19293,0 -0.39596,-0.0832 -0.86641,-0.72804 -1.32548,-0.39019 -0.77497,0.57034 -1.50541,1.47814 -2.38586,1.75583 -0.55819,0.17606 -1.55739,0.0418 -2.12077,-0.19508 -0.095,-0.04 -0.16706,-0.17706 -0.2651,-0.1951 -0.30688,-0.0565 -0.70914,0.32189 -0.92783,0 -0.15231,-0.22418 -0.13255,-0.34503 -0.13255,-0.58528"
       id="path4" />
    <path
       id="path1"
       style="fill:#a05a2c;stroke-width:1.95777"
       d="m 128.84896,116.94039 -23.59351,0.53035 -32.87193,83.50495 99.9411,-5.83204 z m -0.4642,1.52454 c 0,0 -6.49468,11.73021 -12.92325,11.53139 -6.42857,-0.19882 -9.21226,-11.1341 -9.21226,-11.1341 z" />
    <path
       style="fill:#ff0000;stroke:none;stroke-width:1.95777"
       d="m 107.6812,122.9854 c 0,0 3.18667,7.77922 8.99765,7.21686 5.81098,-0.56235 9.09138,-6.93569 9.09138,-6.93569 l 2.71804,-4.59254 0.84352,-22.962751 -5.15489,1.312157 -5.43609,-3.936471 -0.56235,7.123135 -10.12235,-7.966664 -1.96824,8.997644 -12.278041,-10.497252 8.716471,18.557652 z"
       id="path2"
       sodipodi:nodetypes="csccccccccccc" />
    <rect
       style="fill:#ff7f2a;fill-opacity:1;stroke:none;stroke-width:1.95777"
       id="rect3"
       width="12.857144"
       height="83.770256"
       x="110.15956"
       y="119.06123"
       rx="4.3113732"
       ry="4.3113732" />
    <rect
       style="fill:#ff7f2a;fill-opacity:1;stroke:none;stroke-width:1.49275"
       id="rect4"
       width="7.290133"
       height="85.891029"
       x="112.94307"
       y="116.94045"
       rx="2.444593"
       ry="4.4205217" />
    <path
       style="fill:#ffcc00;stroke:none;stroke-width:1.95777"
       d="m 106.1816,105.73991 c 0.44841,1.30113 0.59846,2.68234 0.84352,4.03019 0.023,0.12674 0.0624,0.24994 0.0937,0.37491 0.0624,0.18745 0.15104,0.36814 0.18745,0.56235 0.0579,0.3086 0.0218,0.63162 0.0937,0.93725 0.093,0.39535 0.38898,0.72645 0.46864,1.12471 0.0234,0.11716 -0.0187,0.69357 0,0.84353 0.0878,0.70237 0.46095,1.37902 0.65608,2.06196 0.19451,0.6808 0.22539,1.39307 0.46862,2.06196 0.28694,0.78907 0.85643,1.44458 1.12471,2.24941 0.0693,0.20812 0.22593,0.43513 0.28118,0.65608 0.15357,0.61431 0.3045,1.32204 0.65607,1.87451 0.0949,0.1491 0.27218,0.23109 0.3749,0.3749 0.0757,0.10599 0.21507,0.43015 0.28118,0.56236 0.028,0.0559 -0.028,0.13156 0,0.18745 0.0156,0.0313 0.69808,0.52355 0.74981,0.56235 1.15217,0.86413 2.61452,1.55137 4.03019,0.84353 0.39007,-0.19503 -0.10019,0.007 0.0937,-0.18745 0.0407,-0.0407 1.49951,0.0156 1.59334,0 0.83653,-0.13942 2.09296,-0.99954 2.71804,-1.49961 0.23832,-0.19066 0.37726,-0.51844 0.56235,-0.74981 0.29259,-0.36572 0.73977,-0.57324 1.03098,-0.93725 0.6282,-0.78524 0.74337,-1.42793 1.12471,-2.34313 0.0537,-0.12898 0.15714,-0.23852 0.18745,-0.37491 0.0339,-0.15248 -0.0155,-0.31319 0,-0.46863 0.0158,-0.15851 0.0831,-0.30967 0.0937,-0.46862 0.0472,-0.70809 0,-1.44439 0,-2.15569 0,-2.07344 -0.12063,-4.32268 0,-6.37333 0.0388,-0.66073 0.11467,-1.31325 0.18745,-1.96824 0.0573,-0.51624 0,-1.07208 0,-1.59333 0,-0.19861 0.0761,-1.06621 0,-1.21843 -0.008,-0.016 -0.52142,-0.0136 -0.56236,0 -0.37137,0.12379 -0.37044,0.68979 -0.56235,1.03098 -0.33579,0.59696 -0.93724,1.10591 -1.1247,1.78078 -0.10173,0.36621 -0.0895,0.75747 -0.18745,1.12471 -0.029,0.10884 -0.13708,0.18043 -0.18746,0.28118 -0.0797,0.15949 -0.11196,0.41138 -0.18745,0.56235 -0.0718,0.14354 -0.16702,0.0733 -0.28118,0.18745 -0.0221,0.0221 0.0221,0.0716 0,0.0937 -0.0829,0.0829 -0.5107,0.0199 -0.56235,-0.0937 -0.13923,-0.30633 -0.23162,-0.6328 -0.3749,-0.93726 -0.10725,-0.2279 -0.27568,-0.42456 -0.3749,-0.65607 -0.17919,-0.41811 -0.24419,-0.87646 -0.3749,-1.31216 -0.0879,-0.29299 -0.0206,-0.3749 -0.28118,-0.3749 -0.52565,0 -1.17924,2.28222 -1.40588,2.90549 -0.0458,0.12588 -0.12872,0.70181 -0.28118,0.65607 -1.54777,-0.46433 -1.9205,-0.93608 -2.90549,-2.24941 -0.0229,-0.0306 -0.42947,-0.55818 -0.46863,-0.65608 -0.0232,-0.058 0,-0.24993 0,-0.18745 0,0.5936 0,1.1872 0,1.78079 0,0.18745 0.0346,0.37811 0,0.56235 -0.0601,0.32059 -0.20206,0.62082 -0.28117,0.93726 -0.0152,0.0606 0.028,0.13156 0,0.18745 -0.014,0.028 -0.0629,0.005 -0.0937,0 -0.15713,-0.0262 -0.34533,0.007 -0.46863,-0.0937 -0.24179,-0.19783 -0.3749,-0.49987 -0.56235,-0.7498 -0.18745,-0.24994 -0.3749,-0.49987 -0.56236,-0.74981 -0.3076,-0.41014 -0.57595,-0.96346 -0.65607,-0.7498 -0.0905,0.24123 -0.0918,0.51061 -0.18745,0.7498 -0.218,0.545 -0.52537,1.05096 -0.7498,1.59334 -0.35493,0.85774 -0.46275,2.0649 -0.84354,1.87451 -1.16262,-0.58131 -2.44551,-2.61614 -2.90549,-3.84274 -0.19566,-0.52176 -0.21134,-0.3988 -0.56235,-0.74981 -0.0494,-0.0494 -0.0443,-0.13806 -0.0937,-0.18746 -0.0221,-0.022 -0.0716,0.0221 -0.0937,0 -0.0664,-0.0664 -0.015,-0.97599 0,-1.03097 0.0626,-0.22955 0.18745,-0.43739 0.28118,-0.65608 z"
       id="path3" />
    <rect
       style="fill:#666666;fill-opacity:1;stroke:none;stroke-width:2.64583"
       id="rect5"
       width="204.43745"
       height="19.506424"
       x="6.5865846"
       y="191.51761"
       rx="5.8265939"
       ry="5.8265939" />
    <rect
       style="fill:#f2f2f2;fill-opacity:1;stroke:none;stroke-width:0.978523"
       id="rect6"
       width="204.43745"
       height="2.6680644"
       x="6.5865846"
       y="199.93678"
       rx="5.8265939"
       ry="0.79695427" />
    <rect
       style="fill:#a05a2c;fill-opacity:1;stroke:none;stroke-width:1.72138"
       id="rect7"
       width="3.2963445"
       height="21.755875"
       x="65.978775"
       y="172.52243"
       rx="3.7907958"
       ry="3.7907958" />
    <circle
       style="fill:#44aa00;fill-opacity:1;stroke:none;stroke-width:1.72138"
       id="path7"
       cx="67.1325"
       cy="168.23718"
       r="13.679829" />
    <g
       id="g14"
       transform="matrix(0.68303918,0,0,0.68303918,124.8922,17.7168)"
       style="stroke:#dbe3e2;stroke-width:0.49800301;stroke-dasharray:none">
      <rect
         style="fill:#666666;fill-opacity:1;stroke:#dbe3e2;stroke-width:0.49800301;stroke-dasharray:none"
         id="rect12"
         width="4.7182741"
         height="4.3382792"
         x="73.624084"
         y="242.08864" />
      <path
         id="path8"
         style="fill:#000000;fill-opacity:1;stroke:#dbe3e2;stroke-width:0.49800301;stroke-dasharray:none"
         d="m 59.5328,237.62374 a 9.3732166,9.3732166 0 0 0 -9.373588,9.37307 9.3732166,9.3732166 0 0 0 9.373588,9.37307 9.3732166,9.3732166 0 0 0 9.373072,-9.37307 9.3732166,9.3732166 0 0 0 -9.373072,-9.37307 z m 0,3.41994 a 5.9532595,5.9532595 0 0 1 5.953125,5.95313 5.9532595,5.9532595 0 0 1 -5.953125,5.95312 5.9532595,5.9532595 0 0 1 -5.953641,-5.95312 5.9532595,5.9532595 0 0 1 5.953641,-5.95313 z" />
      <path
         id="path9"
         style="fill:#000000;fill-opacity:1;stroke:#dbe3e2;stroke-width:0.49800301;stroke-dasharray:none"
         d="m 91.959062,237.62374 a 9.3732166,9.3732166 0 0 0 -9.373588,9.37307 9.3732166,9.3732166 0 0 0 9.373588,9.37307 9.3732166,9.3732166 0 0 0 9.373068,-9.37307 9.3732166,9.3732166 0 0 0 -9.373068,-9.37307 z m 0,3.41994 a 5.9532595,5.9532595 0 0 1 5.953125,5.95313 5.9532595,5.9532595 0 0 1 -5.953125,5.95312 5.9532595,5.9532595 0 0 1 -5.953641,-5.95312 5.9532595,5.9532595 0 0 1 5.953641,-5.95313 z" />
      <rect
         style="fill:#b3b3b3;fill-opacity:1;stroke:#dbe3e2;stroke-width:0.49800301;stroke-dasharray:none"
         id="rect9"
         width="2.6599669"
         height="21.153069"
         x="126.1985"
         y="199.19199"
         rx="0"
         ry="0"
         transform="rotate(16.576461)" />
      <ellipse
         style="fill:#ff6600;fill-opacity:1;stroke:#dbe3e2;stroke-width:0.49800301;stroke-dasharray:none"
         id="path10"
         cx="70.615784"
         cy="234.64708"
         rx="6.9032469"
         ry="4.2432804" />
      <path
         style="fill:#666666;fill-opacity:1;stroke:#dbe3e2;stroke-width:0.49800301;stroke-dasharray:none"
         id="ellipse10"
         sodipodi:type="arc"
         sodipodi:cx="83.282295"
         sodipodi:cy="236.54704"
         sodipodi:rx="6.9032469"
         sodipodi:ry="2.7866318"
         sodipodi:start="3.3339501"
         sodipodi:end="6.2147191"
         sodipodi:arc-type="slice"
         d="m 76.50637,236.01431 a 6.9032469,2.7866318 0 0 1 7.203278,-2.24855 6.9032469,2.7866318 0 0 1 6.459721,2.59064 l -6.887074,0.19064 z" />
      <path
         style="fill:#666666;fill-opacity:1;stroke:#dbe3e2;stroke-width:0.49800301;stroke-dasharray:none"
         d="m 67.51249,237.87703 c 2.46997,11.65319 4.496612,14.12316 4.496612,14.12316 l 21.279734,-1.32998 -1.266651,-5.12994 -18.683102,3.41995 -4.813271,-11.08319 z"
         id="path11" />
      <path
         sodipodi:type="spiral"
         style="fill:none;fill-rule:evenodd;stroke:#dbe3e2;stroke-width:0.49800301;stroke-dasharray:none"
         id="path12"
         sodipodi:cx="76.030716"
         sodipodi:cy="243.38696"
         sodipodi:expansion="1"
         sodipodi:revolution="3"
         sodipodi:radius="3.8913453"
         sodipodi:argument="-17.802359"
         sodipodi:t0="0"
         d="m 76.030716,243.38696 c 0.09755,0.16897 -0.179634,0.21486 -0.280834,0.16214 -0.274243,-0.14287 -0.221042,-0.52892 -0.04345,-0.7238 0.317679,-0.3486 0.873757,-0.25041 1.16678,0.0752 0.430023,0.47792 0.281993,1.22376 -0.193943,1.60976 -0.634348,0.51447 -1.575651,0.31461 -2.052726,-0.31264 -0.600351,-0.78933 -0.347776,-1.92847 0.431331,-2.4957 0.943603,-0.68699 2.281806,-0.38126 2.938672,0.55003 0.774095,1.09749 0.414951,2.63547 -0.668719,3.38164 -1.25114,0.86149 -2.989351,0.44878 -3.824619,-0.78741 -0.949084,-1.40464 -0.48269,-3.34339 0.906108,-4.26759 1.558022,-1.03682 3.69753,-0.51668 4.710565,1.0248 1.12466,1.71133 0.550712,4.05176 -1.143497,5.15354"
         transform="translate(-1.3299834,2.4383029)" />
      <rect
         style="fill:#666666;fill-opacity:1;stroke:#dbe3e2;stroke-width:0.49800301;stroke-dasharray:none"
         id="rect13"
         width="11.019863"
         height="2.8816307"
         x="2.613328"
         y="235.31502"
         transform="rotate(-15.129196)" />
      <path
         id="path13"
         style="fill:#ececec;fill-opacity:1;stroke:#dbe3e2;stroke-width:0.49800301;stroke-dasharray:none"
         d="m 61.131669,227.39542 a 2.2641385,2.2641385 0 0 0 -0.174149,0.007 v 4.51497 a 2.2641385,2.2641385 0 0 0 0.174149,0.007 2.2641385,2.2641385 0 0 0 2.264461,-2.26395 2.2641385,2.2641385 0 0 0 -2.264461,-2.26446 z" />
    </g>
    <g
       id="g23"
       transform="matrix(0.57258978,0,0,0.57258978,-375.32324,-103.30526)">
      <circle
         style="fill:#ffd42a;stroke:#d5d5ff;stroke-width:0.2"
         id="path5"
         cx="36.986206"
         cy="49.65271"
         r="28.11965" />
      <rect
         style="fill:#ffd42a;stroke:#d5d5ff;stroke-width:0.2"
         id="rect8"
         width="8.1065655"
         height="8.8665562"
         x="33.076046"
         y="8.0170002"
         inkscape:transform-center-x="-0.26869722"
         inkscape:transform-center-y="-36.363691" />
      <rect
         style="fill:#ffd42a;stroke:#d5d5ff;stroke-width:0.2"
         id="rect10"
         width="8.1065655"
         height="8.8665562"
         x="52.544643"
         y="-16.953148"
         inkscape:transform-center-x="-18.414545"
         inkscape:transform-center-y="-31.357532"
         transform="rotate(30)" />
      <rect
         style="fill:#ffd42a;stroke:#d5d5ff;stroke-width:0.2"
         id="rect11"
         width="8.1065655"
         height="8.8665562"
         x="56.919868"
         y="-48.312229"
         inkscape:transform-center-x="-31.62623"
         inkscape:transform-center-y="-17.949147"
         transform="rotate(60)" />
      <rect
         style="fill:#ffd42a;stroke:#d5d5ff;stroke-width:0.2"
         id="rect15"
         width="8.1065655"
         height="8.8665562"
         x="45.029385"
         y="-77.6576"
         inkscape:transform-center-x="-36.363691"
         inkscape:transform-center-y="0.26869762"
         transform="rotate(90)" />
      <rect
         style="fill:#ffd42a;stroke:#d5d5ff;stroke-width:0.2"
         id="rect16"
         width="8.1065655"
         height="8.8665562"
         x="20.059237"
         y="-97.126198"
         inkscape:transform-center-x="-31.357532"
         inkscape:transform-center-y="18.414545"
         transform="rotate(120)" />
      <rect
         style="fill:#ffd42a;stroke:#d5d5ff;stroke-width:0.2"
         id="rect17"
         width="8.1065655"
         height="8.8665562"
         x="-11.299843"
         y="-101.50142"
         inkscape:transform-center-x="-17.949145"
         inkscape:transform-center-y="31.626227"
         transform="rotate(150)" />
      <rect
         style="fill:#ffd42a;stroke:#d5d5ff;stroke-width:0.2"
         id="rect18"
         width="8.1065655"
         height="8.8665562"
         x="-40.645218"
         y="-89.610939"
         inkscape:transform-center-x="0.26869608"
         inkscape:transform-center-y="36.363691"
         transform="scale(-1)" />
      <rect
         style="fill:#ffd42a;stroke:#d5d5ff;stroke-width:0.2"
         id="rect19"
         width="8.1065655"
         height="8.8665562"
         x="-60.113811"
         y="-64.640793"
         inkscape:transform-center-x="18.414547"
         inkscape:transform-center-y="31.357533"
         transform="rotate(-150)" />
      <rect
         style="fill:#ffd42a;stroke:#d5d5ff;stroke-width:0.2"
         id="rect20"
         width="8.1065655"
         height="8.8665562"
         x="-64.489037"
         y="-33.281712"
         inkscape:transform-center-x="31.626231"
         inkscape:transform-center-y="17.949146"
         transform="rotate(-120)" />
      <rect
         style="fill:#ffd42a;stroke:#d5d5ff;stroke-width:0.2"
         id="rect21"
         width="8.1065655"
         height="8.8665562"
         x="-52.598553"
         y="-3.9363344"
         inkscape:transform-center-x="36.363689"
         inkscape:transform-center-y="-0.26869836"
         transform="rotate(-90)" />
      <rect
         style="fill:#ffd42a;stroke:#d5d5ff;stroke-width:0.2"
         id="rect22"
         width="8.1065655"
         height="8.8665562"
         x="-27.628408"
         y="15.532258"
         inkscape:transform-center-x="31.357532"
         inkscape:transform-center-y="-18.414543"
         transform="rotate(-60)" />
      <rect
         style="fill:#ffd42a;stroke:#d5d5ff;stroke-width:0.2"
         id="rect23"
         width="8.1065655"
         height="8.8665562"
         x="3.7306752"
         y="19.907482"
         inkscape:transform-center-x="17.949147"
         inkscape:transform-center-y="-31.626232"
         transform="rotate(-30)" />
    </g>
    <path
       id="path23"
       style="fill:#dbdbe3;stroke:#d5d5ff;stroke-width:0.241546"
       d="m 30.906145,35.48677 a 20.49897,20.49897 0 0 0 -20.49901,20.499007 20.49897,20.49897 0 0 0 20.49901,20.499007 20.49897,20.49897 0 0 0 5.82703,-0.845943 20.49897,20.49897 0 0 1 -14.67249,-19.653064 20.49897,20.49897 0 0 1 14.67146,-19.653064 20.49897,20.49897 0 0 0 -5.826,-0.845943 z" />
    <g
       id="g26"
       transform="matrix(0.25243258,0,0,0.25243258,107.21389,55.006064)"
       style="fill:#ffd5d5">
      <path
         style="fill:#ffd5d5;stroke:none;stroke-width:0.340156;stroke-dasharray:none"
         d="m 49.082027,126.37726 c 0,0.71653 -14.240955,5.46351 -14.240955,5.46351 l 14.957478,2.06001 3.940895,10.38963 c 0,0 1.970444,5.28438 7.433955,5.37394 5.463511,0.0896 14.50965,-6.5383 14.50965,-6.5383 0,0 13.613992,8.68788 15.494873,5.91134 1.88088,-2.77653 -7.433956,-7.88178 -7.433956,-7.88178 0,0 11.553981,4.56785 10.927022,2.5974 -0.626962,-1.97044 -13.255731,-7.34439 -13.255731,-7.34439 0,0 26.063632,6.807 16.121832,1.52262 -9.941795,-5.28438 -18.27141,-8.24005 -18.27141,-8.24005 l -8.150482,0.98523 c 0,0 -3.58263,-3.49307 3.582631,-4.47829 7.165257,-0.98523 6.717429,-8.68788 3.31393,-8.50875 -3.403497,0.17913 10.74789,1.70175 7.075693,-2.8661 -3.672194,-4.56785 1.074791,-3.6722 -0.895657,-8.95658 -1.970447,-5.28437 12.180941,-10.479187 -8.59831,-5.10524 -20.779252,5.37394 -16.300965,29.73582 -16.300965,29.73582 0,0 0.358264,-8.68787 -3.493064,-9.4044 -3.851328,-0.71652 -6.717429,5.28438 -6.717429,5.28438 z"
         id="path24" />
      <path
         id="rect25"
         style="fill:#008080;stroke:none;stroke-width:0.0835149;stroke-dasharray:none"
         d="m 53.649496,124.45743 -0.899465,0.91966 -0.91966,-0.89947 -0.369048,0.37733 0.91966,0.89947 -0.899465,0.91966 0.377333,0.36904 0.899465,-0.91965 0.91966,0.89946 0.369048,-0.37733 -0.91966,-0.89947 0.899465,-0.91965 z" />
      <path
         id="path26"
         style="fill:#008080;stroke:none;stroke-width:0.0835149;stroke-dasharray:none"
         d="m 56.368912,124.45743 -0.899465,0.91966 -0.91966,-0.89947 -0.369048,0.37733 0.91966,0.89947 -0.899465,0.91966 0.377333,0.36904 0.899466,-0.91965 0.91966,0.89946 0.369047,-0.37733 -0.919659,-0.89947 0.899465,-0.91965 z" />
    </g>
  </g>
</svg>
